<?xml version="1.0" encoding="UTF-8"?>
<svg id="Layer_1" data-name="Layer 1" xmlns="http://www.w3.org/2000/svg" xmlns:xlink="http://www.w3.org/1999/xlink" viewBox="0 0 366.56 92.55">
  <defs>
    <style>
      .cls-1 {
        fill: url(#linear-gradient);
      }

      .cls-1, .cls-2, .cls-3, .cls-4, .cls-5 {
        stroke-width: 0px;
      }

      .cls-2 {
        fill: url(#linear-gradient-2);
      }

      .cls-3 {
        fill: #ff5c00;
      }

      .cls-4 {
        fill: #231f20;
      }

      .cls-5, .cls-6 {
        fill: #fff;
      }

      .cls-6 {
        stroke: #fff;
        stroke-miterlimit: 10;
        stroke-width: .8px;
      }
    </style>
    <linearGradient id="linear-gradient" x1="43" y1="37.8" x2="43" y2="71.57" gradientUnits="userSpaceOnUse">
      <stop offset="0" stop-color="#ff9600"/>
      <stop offset="1" stop-color="#ff5c00"/>
    </linearGradient>
    <linearGradient id="linear-gradient-2" x1="52.65" y1="46.46" x2="52.65" y2="57.56" xlink:href="#linear-gradient"/>
  </defs>
  <g>
    <path class="cls-6" d="M43,92.15c-3.75,0-7.46-.99-10.71-2.87l-21.18-12.23C4.5,73.24.4,66.13.4,58.5v-24.46c0-7.63,4.1-14.73,10.71-18.55L32.29,3.27c3.25-1.88,6.95-2.87,10.71-2.87s7.46.99,10.71,2.87l21.18,12.23c6.6,3.81,10.71,10.92,10.71,18.55v24.46c0,7.63-4.1,14.73-10.71,18.55l-21.18,12.23c-3.25,1.88-6.95,2.87-10.71,2.87Z"/>
    <path class="cls-4" d="M43,84.92c-2.45,0-4.91-.63-7.1-1.9l-21.18-12.23c-4.38-2.53-7.1-7.24-7.1-12.29v-24.46c0-5.05,2.72-9.77,7.1-12.29l21.18-12.23c4.38-2.53,9.82-2.53,14.19,0l21.18,12.23c4.38,2.53,7.1,7.24,7.1,12.29v24.46c0,5.05-2.72,9.77-7.1,12.29l-21.18,12.23c-2.19,1.26-4.64,1.9-7.1,1.9ZM43,9.23c-2.18,0-4.35.56-6.29,1.68l-21.18,12.23c-3.88,2.24-6.29,6.42-6.29,10.9v24.46c0,4.48,2.41,8.66,6.29,10.9l21.18,12.23c3.88,2.24,8.71,2.24,12.59,0l21.18-12.23c3.88-2.24,6.29-6.42,6.29-10.9v-24.46c0-4.48-2.41-8.66-6.29-10.9l-21.18-12.23c-1.94-1.12-4.12-1.68-6.3-1.68Z"/>
    <g id="_7" data-name="7">
      <path class="cls-1" d="M60.29,53.6c0-.98-.07-1.93-.22-2.87-.06-.37-.6-.37-.65,0-.61,4.14-2.17,11.95-9.66,13.06-1.64.24-6.4-.89-6.76-5.64-.41-5.39,3.9-9.33,5.3-10.97,6.05-7.12,5.2-12.47,3.43-16.5-.18-.41-.79-.32-.84.13-.76,5.95-3.66,9.73-7.42,12.26-2.41,1.62-9.21,6.05-9.07,13.47,0,.43-.65.5-.71.07-1.27-8.92,8.18-13.18,11.65-20.05,3.7-7.32,2.11-14.08-1.31-19.86-.24-.4-.86-.23-.84.24.19,7.28-4.09,13.72-6.92,17.13-2.02,2.43-6.75,7.93-8.47,11.38-2,4.01-2.09,8.15-2.09,8.15,0,10.01,7.74,18.13,17.29,18.13,6.75,0,13.04-4.28,15.79-10.74.99-2.32,1.5-4.85,1.5-7.38Z"/>
      <path class="cls-2" d="M54.15,50.21c2.89-1.61,4.67-4.97,1.67-10.52-.13-.25-.52-.17-.53.11-.05,1.08-.87,3.18-1.71,5.08-1.24,2.79-3.84,4.01-5.63,7.99-.16.35.27.67.56.42,1.67-1.5,3.77-2.04,5.64-3.08Z"/>
    </g>
  </g>
  <g>
    <g>
      <path class="cls-5" d="M135.27,23.9h-22.1c-1.68,0-2.97.45-3.88,1.36-.9.9-1.36,2.2-1.36,3.88v35.61c0,1.72.44,3.04,1.32,3.94.88.9,2.14,1.36,3.78,1.36,3.27,0,4.91-1.77,4.91-5.3v-14.09h15.9c1.29,0,2.28-.34,2.97-1.03.69-.69,1.03-1.66,1.03-2.91s-.35-2.21-1.03-2.88c-.69-.67-1.68-1-2.97-1h-15.9v-11.12h17.32c1.29,0,2.27-.33,2.94-1,.67-.67,1-1.65,1-2.94s-.33-2.21-1-2.88c-.67-.67-1.65-1-2.94-1Z"/>
      <path class="cls-5" d="M155.56,23.41c-.95-.84-2.33-1.26-4.14-1.26s-3.2.42-4.17,1.26-1.45,2.06-1.45,3.65.48,2.75,1.45,3.59,2.36,1.26,4.17,1.26,3.19-.42,4.14-1.26c.95-.84,1.42-2.04,1.42-3.59s-.47-2.81-1.42-3.65Z"/>
      <path class="cls-5" d="M151.42,37.21c-1.59,0-2.81.46-3.65,1.39-.84.93-1.26,2.25-1.26,3.97v22.1c0,1.68.42,2.98,1.26,3.91s2.06,1.39,3.65,1.39,2.8-.46,3.62-1.39c.82-.93,1.23-2.23,1.23-3.91v-22.1c0-1.72-.42-3.05-1.26-3.97-.84-.93-2.04-1.39-3.59-1.39Z"/>
      <path class="cls-5" d="M188.52,62.32c-.39-.41-.88-.59-1.49-.55-.47.04-.99.13-1.55.26-.56.13-1.16.19-1.81.19-1.85,0-3.2-.45-4.04-1.36s-1.26-2.26-1.26-4.07v-11.76h6.14c1.21,0,2.13-.32,2.78-.97.65-.65.97-1.53.97-2.65,0-1.21-.32-2.12-.97-2.75-.65-.62-1.57-.94-2.78-.94h-6.14v-4.91c0-1.64-.41-2.88-1.23-3.72-.82-.84-2.03-1.26-3.62-1.26s-2.76.42-3.62,1.26c-.86.84-1.29,2.08-1.29,3.72v4.91h-2.71c-1.21,0-2.14.31-2.81.94-.67.63-1,1.54-1,2.75,0,1.12.33,2,1,2.65.67.65,1.6.97,2.81.97h2.71v12.15c0,2.89.48,5.28,1.45,7.17.97,1.9,2.46,3.34,4.46,4.33,2,.99,4.49,1.49,7.46,1.49.69,0,1.52-.08,2.49-.23.97-.15,1.73-.33,2.29-.55.86-.34,1.46-.9,1.81-1.68.34-.78.52-1.68.52-2.71,0-1.38-.19-2.27-.58-2.68Z"/>
    </g>
    <g>
      <path class="cls-3" d="M227.68,26.1c-3.36-1.94-7.33-2.91-11.89-2.91-3.36,0-6.43.56-9.21,1.68-2.78,1.12-5.16,2.7-7.14,4.75-1.98,2.05-3.5,4.5-4.56,7.37-1.06,2.87-1.58,6.09-1.58,9.66,0,4.7.94,8.81,2.81,12.34,1.87,3.53,4.5,6.28,7.88,8.24,3.37,1.95,7.28,2.93,11.73,2.94h0c1.38,0,2.51.21,3.39.62.88.41,1.6,1.04,2.16,1.91l4.59,7.5c.69,1.03,1.52,1.73,2.49,2.1.97.37,1.94.46,2.91.29.97-.17,1.8-.57,2.49-1.2.69-.63,1.12-1.4,1.29-2.33.17-.93-.09-1.95-.78-3.07l-2.59-4.14c-1.03-1.68-2.19-2.86-3.46-3.55-.45-.24-.94-.44-1.48-.6,2.03-1.04,3.83-2.37,5.39-3.99,1.98-2.07,3.51-4.54,4.59-7.43,1.08-2.89,1.62-6.12,1.62-9.69,0-4.7-.94-8.8-2.81-12.31-1.87-3.51-4.49-6.24-7.85-8.17ZM226.42,54.69c-.97,2.26-2.35,3.99-4.14,5.17-1.79,1.19-3.95,1.78-6.49,1.78-3.79,0-6.74-1.32-8.85-3.97-2.11-2.65-3.17-6.32-3.17-11.02,0-3.14.47-5.84,1.42-8.08.95-2.24,2.33-3.94,4.14-5.11,1.81-1.16,3.96-1.75,6.46-1.75,3.83,0,6.81,1.3,8.92,3.91,2.11,2.61,3.17,6.28,3.17,11.02,0,3.1-.48,5.78-1.45,8.05Z"/>
      <path class="cls-3" d="M268.33,37.21c-1.55,0-2.75.41-3.59,1.23-.84.82-1.26,2.05-1.26,3.68v13.31c0,2.16-.59,3.89-1.78,5.2-1.19,1.31-2.7,1.97-4.56,1.97-1.68,0-2.91-.46-3.68-1.39-.78-.93-1.16-2.34-1.16-4.23v-14.86c0-1.64-.43-2.86-1.29-3.68-.86-.82-2.07-1.23-3.62-1.23s-2.75.41-3.59,1.23c-.84.82-1.26,2.05-1.26,3.68v14.61c0,2.97.42,5.46,1.26,7.46s2.14,3.5,3.91,4.49c1.77.99,3.98,1.49,6.66,1.49,2.41,0,4.5-.6,6.27-1.81,1.24-.84,2.27-1.94,3.1-3.27,0,1.58.41,2.8,1.23,3.65.82.86,2,1.29,3.55,1.29,3.14,0,4.72-1.66,4.72-4.98v-22.94c0-1.64-.42-2.86-1.26-3.68-.84-.82-2.06-1.23-3.65-1.23Z"/>
      <path class="cls-3" d="M307.24,55.08c.52-.41.78-1.02.78-1.84,0-2.46-.35-4.69-1.03-6.69-.69-2-1.7-3.71-3.04-5.11-1.34-1.4-2.93-2.48-4.78-3.23-1.85-.75-3.92-1.13-6.2-1.13-3.15,0-5.96.7-8.43,2.1-2.48,1.4-4.41,3.34-5.78,5.82-1.38,2.48-2.07,5.35-2.07,8.63s.72,6.28,2.17,8.76c1.44,2.48,3.51,4.39,6.2,5.75,2.69,1.36,5.91,2.04,9.66,2.04,1.72,0,3.5-.21,5.33-.61,1.83-.41,3.48-1.02,4.94-1.84.9-.47,1.55-1.07,1.94-1.78.39-.71.55-1.43.48-2.17-.06-.73-.31-1.38-.74-1.94-.43-.56-1.03-.91-1.81-1.07-.78-.15-1.66.01-2.65.48-1.16.56-2.41.97-3.75,1.23-1.34.26-2.52.39-3.55.39-3.02,0-5.29-.78-6.82-2.33-1.13-1.15-1.84-2.76-2.13-4.85h19.03c.99,0,1.75-.2,2.26-.61ZM289.27,44.64c1.12-.73,2.48-1.1,4.07-1.1,1.42,0,2.62.3,3.59.9.97.6,1.71,1.5,2.23,2.68.42.97.67,2.16.74,3.52h-13.97c.14-1.05.39-2,.75-2.84.6-1.38,1.46-2.43,2.59-3.17Z"/>
      <path class="cls-3" d="M330.05,51.11l-6.79-1.23c-1.03-.17-1.8-.51-2.29-1-.5-.49-.74-1.11-.74-1.84,0-.95.43-1.73,1.29-2.36.86-.62,2.26-.94,4.2-.94,1.08,0,2.2.14,3.36.42,1.16.28,2.43.74,3.81,1.39.86.35,1.63.43,2.29.26.67-.17,1.22-.54,1.65-1.1.43-.56.7-1.18.81-1.87.11-.69,0-1.36-.32-2-.32-.65-.87-1.16-1.65-1.55-1.51-.78-3.08-1.33-4.72-1.68-1.64-.34-3.43-.52-5.36-.52-2.71,0-5.14.42-7.27,1.26s-3.8,2.05-5.01,3.62c-1.21,1.57-1.81,3.44-1.81,5.59,0,2.33.72,4.23,2.16,5.72,1.44,1.49,3.5,2.47,6.17,2.94l6.79,1.23c1.08.17,1.9.47,2.46.9.56.43.84,1.08.84,1.94,0,.95-.42,1.71-1.26,2.29-.84.58-2.19.87-4.04.87-1.42,0-2.87-.15-4.33-.45-1.47-.3-3.08-.82-4.85-1.55-.82-.34-1.56-.42-2.23-.23-.67.19-1.21.57-1.62,1.13-.41.56-.64,1.19-.68,1.87-.04.69.12,1.37.48,2.04.37.67.98,1.22,1.84,1.65,1.64.82,3.46,1.4,5.46,1.75,2,.34,3.95.52,5.85.52,4.27,0,7.68-.94,10.24-2.81,2.56-1.87,3.85-4.45,3.85-7.72,0-2.41-.73-4.32-2.2-5.72-1.47-1.4-3.6-2.34-6.4-2.81Z"/>
      <path class="cls-3" d="M365.98,62.32c-.39-.41-.88-.59-1.49-.55-.47.04-.99.13-1.55.26-.56.13-1.16.19-1.81.19-1.85,0-3.2-.45-4.04-1.36s-1.26-2.26-1.26-4.07v-11.76h6.14c1.21,0,2.13-.32,2.78-.97.65-.65.97-1.53.97-2.65,0-1.21-.32-2.12-.97-2.75-.65-.62-1.57-.94-2.78-.94h-6.14v-4.91c0-1.64-.41-2.88-1.23-3.72-.82-.84-2.03-1.26-3.62-1.26s-2.76.42-3.62,1.26c-.86.84-1.29,2.08-1.29,3.72v4.91h-2.71c-1.21,0-2.14.31-2.81.94-.67.63-1,1.54-1,2.75,0,1.12.33,2,1,2.65.67.65,1.6.97,2.81.97h2.71v12.15c0,2.89.48,5.28,1.45,7.17.97,1.9,2.46,3.34,4.46,4.33,2,.99,4.49,1.49,7.46,1.49.69,0,1.52-.08,2.49-.23.97-.15,1.73-.33,2.29-.55.86-.34,1.46-.9,1.81-1.68.34-.78.52-1.68.52-2.71,0-1.38-.19-2.27-.58-2.68Z"/>
    </g>
  </g>
</svg>